<?xml version="1.0" encoding="UTF-8" standalone="no"?>
<!-- Created with Inkscape (http://www.inkscape.org/) -->

<svg
   xmlns:osb="http://www.openswatchbook.org/uri/2009/osb"
   xmlns:dc="http://purl.org/dc/elements/1.1/"
   xmlns:cc="http://creativecommons.org/ns#"
   xmlns:rdf="http://www.w3.org/1999/02/22-rdf-syntax-ns#"
   xmlns:svg="http://www.w3.org/2000/svg"
   xmlns="http://www.w3.org/2000/svg"
   xmlns:sodipodi="http://sodipodi.sourceforge.net/DTD/sodipodi-0.dtd"
   xmlns:inkscape="http://www.inkscape.org/namespaces/inkscape"
   width="64"
   height="64"
   viewBox="0 0 16.933333 16.933334"
   version="1.1"
   id="svg4805"
   inkscape:version="0.92.0 r15299"
   sodipodi:docname="coffeecup.svg"
   inkscape:export-filename="C:\Users\Corinna\OneDrive\CS467_Capstone\art\coffeecup.png"
   inkscape:export-xdpi="96"
   inkscape:export-ydpi="96">
  <defs
     id="defs4799">
    <inkscape:path-effect
       effect="spiro"
       id="path-effect5443"
       is_visible="true" />
    <inkscape:path-effect
       effect="simplify"
       id="path-effect5441"
       is_visible="true"
       steps="1"
       threshold="0.000408163"
       smooth_angles="360"
       helper_size="0"
       simplify_individual_paths="false"
       simplify_just_coalesce="false"
       simplifyindividualpaths="false"
       simplifyJustCoalesce="false" />
    <linearGradient
       id="linearGradient5427"
       osb:paint="solid">
      <stop
         style="stop-color:#939dac;stop-opacity:1;"
         offset="0"
         id="stop5425" />
    </linearGradient>
  </defs>
  <sodipodi:namedview
     id="base"
     pagecolor="#ffffff"
     bordercolor="#666666"
     borderopacity="1.0"
     inkscape:pageopacity="0.0"
     inkscape:pageshadow="2"
     inkscape:zoom="22.4"
     inkscape:cx="32.121429"
     inkscape:cy="27.949068"
     inkscape:document-units="px"
     inkscape:current-layer="layer1"
     showgrid="false"
     units="px"
     inkscape:window-width="2736"
     inkscape:window-height="1699"
     inkscape:window-x="3827"
     inkscape:window-y="-13"
     inkscape:window-maximized="1" />
  <metadata
     id="metadata4802">
    <rdf:RDF>
      <cc:Work
         rdf:about="">
        <dc:format>image/svg+xml</dc:format>
        <dc:type
           rdf:resource="http://purl.org/dc/dcmitype/StillImage" />
        <dc:title />
      </cc:Work>
    </rdf:RDF>
  </metadata>
  <g
     inkscape:label="Layer 1"
     inkscape:groupmode="layer"
     id="layer1"
     transform="translate(0,-280.06666)">
    <ellipse
       style="opacity:1;fill:#ffffff;fill-opacity:1;fill-rule:evenodd;stroke:#000000;stroke-width:0.21887097;stroke-linecap:round;stroke-linejoin:round;stroke-miterlimit:4;stroke-dasharray:none;stroke-dashoffset:0;stroke-opacity:0.5;paint-order:fill markers stroke"
       id="path5354-9"
       cx="8.4631233"
       cy="295.38177"
       rx="3.8439591"
       ry="0.97370255" />
    <ellipse
       style="opacity:1;fill:#ffffff;fill-opacity:1;fill-rule:evenodd;stroke:#ffffff;stroke-width:0.26302287;stroke-linecap:round;stroke-linejoin:round;stroke-miterlimit:4;stroke-dasharray:none;stroke-dashoffset:0;stroke-opacity:0.5;paint-order:fill markers stroke"
       id="path5383"
       cx="8.5162773"
       cy="294.96838"
       rx="3.6624248"
       ry="1.0047797" />
    <path
       style="fill:#ffffff;fill-opacity:1;stroke:#0c0c0c;stroke-width:0.26458335px;stroke-linecap:butt;stroke-linejoin:miter;stroke-opacity:0.48651961"
       d="m 14.103237,282.67233 -1.795387,12.73308 v 0"
       id="path5375"
       inkscape:connector-curvature="0" />
    <path
       style="fill:#ffffff;fill-opacity:1;stroke:#000000;stroke-width:0.26458335px;stroke-linecap:butt;stroke-linejoin:miter;stroke-opacity:0.4627451"
       d="m 2.6930805,282.66053 2.0316219,12.87481 0.023625,0.0236"
       id="path5373"
       inkscape:connector-curvature="0" />
    <ellipse
       style="opacity:0.922;fill:#ffffff;fill-opacity:1;fill-rule:evenodd;stroke:#000000;stroke-width:0.26458335;stroke-linecap:round;stroke-linejoin:round;stroke-miterlimit:4;stroke-dasharray:none;stroke-dashoffset:0;stroke-opacity:0.50196078;paint-order:fill markers stroke"
       id="path5354"
       cx="8.3509121"
       cy="282.59555"
       rx="5.7523255"
       ry="0.95084637" />
    <ellipse
       style="opacity:0.922;fill:#d7f4d7;fill-opacity:1;fill-rule:evenodd;stroke:#008000;stroke-width:0.2887266;stroke-linecap:round;stroke-linejoin:round;stroke-miterlimit:4;stroke-dasharray:none;stroke-dashoffset:0;stroke-opacity:1;paint-order:fill markers stroke"
       id="path5437"
       cx="8.5280876"
       cy="289.35776"
       rx="4.2637844"
       ry="3.7204435" />
    <path
       sodipodi:type="star"
       style="opacity:1;fill:#008000;fill-opacity:1;fill-rule:evenodd;stroke:#000000;stroke-width:0.26458335;stroke-linecap:round;stroke-linejoin:round;stroke-miterlimit:4;stroke-dasharray:none;stroke-dashoffset:0;stroke-opacity:0;paint-order:fill markers stroke"
       id="path4764"
       sodipodi:sides="4"
       sodipodi:cx="6.6145835"
       sodipodi:cy="286.41666"
       sodipodi:r1="0.37417737"
       sodipodi:r2="0.26458335"
       sodipodi:arg1="0.78539816"
       sodipodi:arg2="1.5707963"
       inkscape:flatsided="true"
       inkscape:rounded="8"
       inkscape:randomized="0"
       d="m 6.8791668,286.68124 c -2.9934189,2.99342 2.4642523,2.99342 -0.5291667,0 -2.9934189,-2.99342 -2.9934189,2.46425 0,-0.52917 2.993419,-2.99342 -2.4642522,-2.99342 0.5291667,0 2.993419,2.99342 2.993419,-2.46425 0,0.52917 z"
       transform="matrix(0.477743,0.40564589,-0.48571562,0.40564569,144.53538,170.45881)" />
    <path
       sodipodi:type="star"
       style="opacity:1;fill:#008000;fill-opacity:1;fill-rule:evenodd;stroke:#000000;stroke-width:0.26458335;stroke-linecap:round;stroke-linejoin:round;stroke-miterlimit:4;stroke-dasharray:none;stroke-dashoffset:0;stroke-opacity:0;paint-order:fill markers stroke"
       id="path4764-3"
       sodipodi:sides="4"
       sodipodi:cx="6.6145835"
       sodipodi:cy="286.41666"
       sodipodi:r1="0.37417737"
       sodipodi:r2="0.26458335"
       sodipodi:arg1="0.78539816"
       sodipodi:arg2="1.5707963"
       inkscape:flatsided="true"
       inkscape:rounded="8"
       inkscape:randomized="0"
       d="m 6.8791668,286.68124 c -2.9934189,2.99342 2.4642523,2.99342 -0.5291667,0 -2.9934189,-2.99342 -2.9934189,2.46425 0,-0.52917 2.993419,-2.99342 -2.4642522,-2.99342 0.5291667,0 2.993419,2.99342 2.993419,-2.46425 0,0.52917 z"
       transform="matrix(0.477743,0.40564589,-0.48571562,0.40564569,142.74777,168.94098)" />
    <path
       sodipodi:type="star"
       style="opacity:1;fill:#008000;fill-opacity:1;fill-rule:evenodd;stroke:#000000;stroke-width:0.26458335;stroke-linecap:round;stroke-linejoin:round;stroke-miterlimit:4;stroke-dasharray:none;stroke-dashoffset:0;stroke-opacity:0;paint-order:fill markers stroke"
       id="path4764-34"
       sodipodi:sides="4"
       sodipodi:cx="6.6145835"
       sodipodi:cy="286.41666"
       sodipodi:r1="0.37417737"
       sodipodi:r2="0.26458335"
       sodipodi:arg1="0.78539816"
       sodipodi:arg2="1.5707963"
       inkscape:flatsided="true"
       inkscape:rounded="8"
       inkscape:randomized="0"
       d="m 6.8791668,286.68124 c -2.9934189,2.99342 2.4642523,2.99342 -0.5291667,0 -2.9934189,-2.99342 -2.9934189,2.46425 0,-0.52917 2.993419,-2.99342 -2.4642522,-2.99342 0.5291667,0 2.993419,2.99342 2.993419,-2.46425 0,0.52917 z"
       transform="matrix(0.477743,0.40564589,-0.48571562,0.40564569,146.35282,168.94098)" />
    <path
       sodipodi:type="star"
       style="opacity:1;fill:#008000;fill-opacity:1;fill-rule:evenodd;stroke:#000000;stroke-width:0.26458335;stroke-linecap:round;stroke-linejoin:round;stroke-miterlimit:4;stroke-dasharray:none;stroke-dashoffset:0;stroke-opacity:0;paint-order:fill markers stroke"
       id="path4764-8"
       sodipodi:sides="4"
       sodipodi:cx="6.6145835"
       sodipodi:cy="286.41666"
       sodipodi:r1="0.37417737"
       sodipodi:r2="0.26458335"
       sodipodi:arg1="0.78539816"
       sodipodi:arg2="1.5707963"
       inkscape:flatsided="true"
       inkscape:rounded="8"
       inkscape:randomized="0"
       d="m 6.8791668,286.68124 c -2.9934189,2.99342 2.4642523,2.99342 -0.5291667,0 -2.9934189,-2.99342 -2.9934189,2.46425 0,-0.52917 2.993419,-2.99342 -2.4642522,-2.99342 0.5291667,0 2.993419,2.99342 2.993419,-2.46425 0,0.52917 z"
       transform="matrix(0.477743,0.40564589,-0.48571562,0.40564569,146.32299,171.97664)" />
    <path
       sodipodi:type="star"
       style="opacity:1;fill:#008000;fill-opacity:1;fill-rule:evenodd;stroke:#000000;stroke-width:0.26458335;stroke-linecap:round;stroke-linejoin:round;stroke-miterlimit:4;stroke-dasharray:none;stroke-dashoffset:0;stroke-opacity:0;paint-order:fill markers stroke"
       id="path4764-32"
       sodipodi:sides="4"
       sodipodi:cx="6.6145835"
       sodipodi:cy="286.41666"
       sodipodi:r1="0.37417737"
       sodipodi:r2="0.26458335"
       sodipodi:arg1="0.78539816"
       sodipodi:arg2="1.5707963"
       inkscape:flatsided="true"
       inkscape:rounded="8"
       inkscape:randomized="0"
       d="m 6.8791668,286.68124 c -2.9934189,2.99342 2.4642523,2.99342 -0.5291667,0 -2.9934189,-2.99342 -2.9934189,2.46425 0,-0.52917 2.993419,-2.99342 -2.4642522,-2.99342 0.5291667,0 2.993419,2.99342 2.993419,-2.46425 0,0.52917 z"
       transform="matrix(0.477743,0.40564589,-0.48571562,0.40564569,142.71795,171.97664)" />
    <ellipse
       ry="0.48827219"
       rx="4.8053164"
       cy="282.83578"
       cx="8.3627243"
       id="path5423"
       style="opacity:1;fill:#a05a2c;fill-opacity:1;fill-rule:evenodd;stroke:#000000;stroke-width:0.27256748;stroke-linecap:round;stroke-linejoin:round;stroke-miterlimit:4;stroke-dasharray:none;stroke-dashoffset:0;stroke-opacity:0;paint-order:fill markers stroke" />
    <path
       style="opacity:0.922;fill:#917c6f;fill-opacity:1;fill-rule:evenodd;stroke:#af8e78;stroke-width:0.26458335;stroke-linecap:round;stroke-linejoin:round;stroke-miterlimit:4;stroke-dasharray:none;stroke-dashoffset:0;stroke-opacity:0.73650405;paint-order:fill markers stroke"
       id="path5445"
       d="m 6.6684,282.66775 c 0.099045,0.0369 0.2035329,0.0566 0.3071109,0.0761 0.1232826,0.018 0.2468507,0.0347 0.3705976,0.0493 0.098396,0.0147 0.1968628,0.0287 0.2959381,0.0379 0.046139,0.003 0.092001,0.008 0.1378564,0.0138 0.068534,0.005 0.1360334,0.0182 0.2040541,0.0276 0.023648,0.003 0.047227,0.006 0.071104,0.006 0,0 -0.038,0.0275 -0.038,0.0275 v 0 c -0.023879,-8.5e-4 -0.047525,-0.003 -0.071178,-0.007 -0.067997,-0.01 -0.135549,-0.0223 -0.2040906,-0.0275 -0.045822,-0.005 -0.091619,-0.0109 -0.1376813,-0.0138 -0.098922,-0.01 -0.1972347,-0.0239 -0.2955501,-0.0383 -0.1238065,-0.0148 -0.2474691,-0.0313 -0.3707858,-0.0496 -0.1039416,-0.0196 -0.2086642,-0.0396 -0.3081719,-0.0763 0,0 0.038797,-0.0261 0.038797,-0.0261 z"
       inkscape:connector-curvature="0" />
    <path
       style="opacity:0.922;fill:#917c6f;fill-opacity:1;fill-rule:evenodd;stroke:#af8e78;stroke-width:0.26458335;stroke-linecap:round;stroke-linejoin:round;stroke-miterlimit:4;stroke-dasharray:none;stroke-dashoffset:0;stroke-opacity:0.73650405;paint-order:fill markers stroke"
       id="path5447"
       d="m 8.4624814,282.71656 c 0.1137682,0.0509 0.2346386,0.082 0.354578,0.11425 0.1561107,0.0392 0.31219,0.0787 0.4689631,0.11514 0.1080402,0.0225 0.2169734,0.0408 0.3269067,0.0508 0.06778,0.006 0.135849,0.005 0.2037961,0.005 0.077574,-0.001 0.1552864,0.002 0.2327907,-0.002 0.0079,-7.2e-4 0.01589,-0.001 0.02384,-0.002 0,0 -0.03761,0.0278 -0.03761,0.0278 v 0 c -0.0079,6.3e-4 -0.01588,10e-4 -0.02382,0.002 -0.07753,0.003 -0.1552171,5.6e-4 -0.2327982,0.002 -0.068035,0 -0.1362049,5.6e-4 -0.2040488,-0.005 -0.1098603,-0.0105 -0.2187199,-0.029 -0.3266959,-0.0517 -0.1567426,-0.0367 -0.3128465,-0.0762 -0.4689909,-0.11531 -0.120369,-0.0324 -0.2415754,-0.0637 -0.3559223,-0.11431 0,0 0.039012,-0.0258 0.039012,-0.0258 z"
       inkscape:connector-curvature="0" />
    <path
       style="opacity:0.922;fill:#917c6f;fill-opacity:1;fill-rule:evenodd;stroke:#af8e78;stroke-width:0.26458335;stroke-linecap:round;stroke-linejoin:round;stroke-miterlimit:4;stroke-dasharray:none;stroke-dashoffset:0;stroke-opacity:0.73650405;paint-order:fill markers stroke"
       id="path5449"
       d="m 10.011058,282.65442 c 0.100249,0.0282 0.201123,0.0547 0.303383,0.0746 0.08295,0.0178 0.166118,0.0342 0.250483,0.0434 0.05252,0.005 0.105308,0.005 0.158,0.005 0.103513,-0.002 0.206152,0.011 0.308733,0.0227 0.104118,0.0124 0.206771,0.035 0.310781,0.0478 0,0 -0.03806,0.0269 -0.03806,0.0269 v 0 c -0.103721,-0.0138 -0.206246,-0.0358 -0.310203,-0.0482 -0.102659,-0.0116 -0.205401,-0.0246 -0.308976,-0.0218 -0.05281,-5e-5 -0.105716,10e-5 -0.158324,-0.005 -0.08428,-0.01 -0.167345,-0.0264 -0.25028,-0.044 -0.102469,-0.0202 -0.203573,-0.0467 -0.3041934,-0.0746 0,0 0.038658,-0.0263 0.038658,-0.0263 z"
       inkscape:connector-curvature="0" />
    <path
       style="opacity:0.922;fill:#918a6f;fill-opacity:1;fill-rule:evenodd;stroke:#af8e78;stroke-width:0.26458335;stroke-linecap:round;stroke-linejoin:round;stroke-miterlimit:4;stroke-dasharray:none;stroke-dashoffset:0;stroke-opacity:0.73650405;paint-order:fill markers stroke"
       id="path5451"
       d="m 5.6552144,282.86547 c 0.1044032,0.0259 0.2072378,0.0575 0.3107086,0.0869 0.071657,0.0207 0.1431158,0.0427 0.2166353,0.0558 0.043678,0.0121 0.088744,0.0137 0.1337424,0.0152 0.068327,10e-6 0.1369288,0.004 0.2051788,4e-5 0,0 -0.037672,0.0277 -0.037672,0.0277 v 0 c -0.068336,0.004 -0.1369107,-2.7e-4 -0.2052928,-4.8e-4 -0.045234,-0.002 -0.090413,-0.004 -0.1343174,-0.0156 -0.073363,-0.0137 -0.1447003,-0.0359 -0.2163328,-0.0566 -0.1035315,-0.0293 -0.2063509,-0.0613 -0.3110466,-0.0863 0,0 0.038396,-0.0266 0.038396,-0.0266 z"
       inkscape:connector-curvature="0" />
    <path
       style="opacity:0.922;fill:#918a6f;fill-opacity:1;fill-rule:evenodd;stroke:#af8e78;stroke-width:0.26458335;stroke-linecap:round;stroke-linejoin:round;stroke-miterlimit:4;stroke-dasharray:none;stroke-dashoffset:0;stroke-opacity:0.73650405;paint-order:fill markers stroke"
       id="path5453"
       d="m 4.9922979,282.82853 c 0.091916,0.0152 0.1849715,0.0216 0.2778789,0.0271 0.049568,0.003 0.0985,-0.003 0.1477775,0.004 0.048512,0.007 0.095612,0.0215 0.1415142,0.0383 0.019913,0.007 0.010705,0.004 0.027687,0.0106 0,0 -0.039059,0.0261 -0.039059,0.0261 v 0 c -0.016809,-0.007 -0.00767,-0.003 -0.027483,-0.0105 -0.045745,-0.0165 -0.092499,-0.0312 -0.1408586,-0.0375 -0.049107,-0.006 -0.098012,2.3e-4 -0.1473186,-0.004 -0.093085,-0.006 -0.1862948,-0.0124 -0.2784439,-0.0273 0,0 0.038306,-0.0268 0.038305,-0.0268 z"
       inkscape:connector-curvature="0" />
    <path
       style="opacity:0.922;fill:#916f6f;fill-opacity:1;fill-rule:evenodd;stroke:#af8e78;stroke-width:0.26458335;stroke-linecap:round;stroke-linejoin:round;stroke-miterlimit:4;stroke-dasharray:none;stroke-dashoffset:0;stroke-opacity:0.73650405;paint-order:fill markers stroke"
       id="path5455"
       d="m 6.1580021,282.56761 c 0.082484,0.0584 0.1738508,0.10192 0.2671572,0.1398 0.072672,0.0289 0.1444707,0.0599 0.213565,0.0965 0,0 -0.039168,0.0256 -0.039168,0.0256 v 0 c -0.068759,-0.0368 -0.1403234,-0.0677 -0.2127359,-0.0965 -0.093621,-0.0382 -0.185194,-0.0822 -0.2682817,-0.14036 0,0 0.039464,-0.0251 0.039464,-0.0251 z"
       inkscape:connector-curvature="0" />
    <path
       style="opacity:0.922;fill:#916f6f;fill-opacity:1;fill-rule:evenodd;stroke:#af8e78;stroke-width:0.26458335;stroke-linecap:round;stroke-linejoin:round;stroke-miterlimit:4;stroke-dasharray:none;stroke-dashoffset:0;stroke-opacity:0.73650405;paint-order:fill markers stroke"
       id="path5457"
       d="m 5.6698011,282.70008 c 0.1374807,0.0229 0.2766338,0.0346 0.4152548,0.0485 0.1544294,0.0208 0.3095625,0.0361 0.4640718,0.0561 0.0537,0.008 0.1075407,0.0144 0.1614887,0.0201 0.03901,0.004 0.06344,0.006 0.1010772,0.0167 0.044824,0.0152 0.081502,0.0448 0.1179703,0.0738 0.025691,0.0256 0.051344,0.0507 0.079121,0.074 0.021783,0.0164 0.045714,0.0208 0.072195,0.0191 0.046372,-0.002 0.09228,-0.009 0.1383842,-0.0136 0.033068,-0.002 0.065602,-0.005 0.098187,-0.0112 0.00406,-6.3e-4 0.00822,-7.6e-4 0.012179,-0.002 0.00564,-0.002 0.01764,-0.008 0.02304,-0.01 0.017806,-0.007 0.036024,-0.0111 0.054574,-0.0151 0.052692,-0.01 0.1056298,-0.0179 0.1590056,-0.0229 0.034353,-0.003 0.06883,-0.004 0.1032936,-0.004 0.029131,-0.003 0.056046,0.004 0.082751,0.0147 0.014642,0.008 0.030098,0.0144 0.04511,0.0218 0,0 -0.039124,0.0258 -0.039124,0.0258 v 0 c -0.014983,-0.007 -0.030302,-0.0137 -0.04502,-0.0215 -0.026488,-0.0104 -0.053071,-0.0157 -0.081702,-0.0132 -0.03433,2.9e-4 -0.068671,0.001 -0.1028837,0.004 -0.053258,0.005 -0.1061263,0.0132 -0.1586572,0.0233 -0.03077,0.007 -0.059517,0.0197 -0.090094,0.0267 -0.032574,0.006 -0.065244,0.009 -0.098225,0.0109 -0.046192,0.005 -0.092217,0.0117 -0.1386837,0.0135 -0.027301,0.001 -0.052088,-0.005 -0.07416,-0.022 -0.02773,-0.0233 -0.053042,-0.0487 -0.078951,-0.074 -0.036048,-0.0287 -0.072318,-0.0578 -0.1167855,-0.0724 -0.084456,-0.0232 -0.1757437,-0.0192 -0.2615925,-0.0367 -0.1543902,-0.0199 -0.3093265,-0.0357 -0.4636653,-0.0562 -0.1390148,-0.0139 -0.2785415,-0.0256 -0.4164534,-0.0482 0,0 0.038294,-0.0267 0.038294,-0.0267 z"
       inkscape:connector-curvature="0" />
    <path
       style="opacity:0.922;fill:#916f6f;fill-opacity:1;fill-rule:evenodd;stroke:#af8e78;stroke-width:0.26458335;stroke-linecap:round;stroke-linejoin:round;stroke-miterlimit:4;stroke-dasharray:none;stroke-dashoffset:0;stroke-opacity:0.73650405;paint-order:fill markers stroke"
       id="path5459"
       d="m 8.6240807,282.73763 c 0.046286,0.0544 0.095686,0.10593 0.1478299,0.15468 0.035926,0.0322 0.069124,0.0673 0.1095502,0.0938 0.047749,0.0338 0.1054888,0.045 0.1622401,0.0531 0.097836,0.0124 0.1963793,0.003 0.2934645,-0.011 0.1001562,-0.016 0.198029,-0.044 0.2940584,-0.0762 0.044916,-0.0126 0.085037,-0.0366 0.1273514,-0.0554 0.030161,-0.016 0.061919,-0.0286 0.092984,-0.0428 -0.00724,0.004 -0.014034,0.009 -0.021717,0.0122 -0.00634,0.003 0.011811,-0.007 0.017637,-0.0105 0.015814,-0.01 0.030901,-0.0206 0.046323,-0.031 0,0 0.043677,-0.0171 0.043677,-0.0171 v 0 c -0.040048,0.0265 -0.079213,0.0543 -0.1226026,0.0755 -0.031101,0.0142 -0.062742,0.0271 -0.093065,0.0428 -0.042029,0.0192 -0.082523,0.0422 -0.1273095,0.0548 -0.096175,0.0318 -0.1940306,0.0597 -0.2942561,0.0753 -0.0975,0.0137 -0.1964002,0.0231 -0.2945781,0.0102 -0.057366,-0.009 -0.1154375,-0.0204 -0.1636387,-0.0547 -0.04037,-0.027 -0.073811,-0.0622 -0.1097873,-0.0946 -0.052157,-0.0489 -0.1013341,-0.10082 -0.1481204,-0.15491 0,0 0.039958,-0.0243 0.039958,-0.0243 z"
       inkscape:connector-curvature="0" />
    <path
       style="opacity:0.922;fill:#916f6f;fill-opacity:1;fill-rule:evenodd;stroke:#af8e78;stroke-width:0.26458335;stroke-linecap:round;stroke-linejoin:round;stroke-miterlimit:4;stroke-dasharray:none;stroke-dashoffset:0;stroke-opacity:0.73650405;paint-order:fill markers stroke"
       id="path5461"
       d="m 9.4449323,282.6083 c 0.1123,-0.013 0.2250109,-0.0209 0.3379041,-0.0263 0.1029952,-0.004 0.2060851,-0.006 0.3091586,-0.006 0.03366,-7.6e-4 0.06692,-0.001 0.100043,0.005 0,0 -0.03841,0.0269 -0.03841,0.0269 v 0 c -0.03288,-0.006 -0.06591,-0.005 -0.09922,-0.005 -0.102904,4.4e-4 -0.2058264,0.002 -0.3086485,0.006 -0.1130533,0.006 -0.2259275,0.0135 -0.3383355,0.0271 0,0 0.03751,-0.0279 0.03751,-0.0279 z"
       inkscape:connector-curvature="0" />
    <path
       style="opacity:0.922;fill:#916f6f;fill-opacity:1;fill-rule:evenodd;stroke:#af8e78;stroke-width:0.26458335;stroke-linecap:round;stroke-linejoin:round;stroke-miterlimit:4;stroke-dasharray:none;stroke-dashoffset:0;stroke-opacity:0.73650405;paint-order:fill markers stroke"
       id="path5463"
       d="m 11.015896,282.67917 c 0.08527,-0.0171 0.170927,-0.0331 0.255291,-0.0543 0.06249,-0.0152 0.124552,-0.0322 0.187956,-0.0432 0.03113,-0.005 0.06273,-0.006 0.09423,-0.006 0.02578,-0.002 0.04813,0.008 0.07008,0.0199 0.02848,0.0203 0.04996,0.0483 0.07686,0.0703 0.01538,0.0117 0.03064,0.0236 0.04554,0.0359 0,0 -0.0399,0.025 -0.0399,0.025 v 0 c -0.01482,-0.0124 -0.03007,-0.0243 -0.04539,-0.036 -0.02648,-0.0221 -0.04796,-0.0497 -0.07645,-0.0695 -0.02168,-0.0118 -0.04354,-0.02 -0.06872,-0.018 -0.03132,3.3e-4 -0.06272,10e-4 -0.09364,0.007 -0.06319,0.0112 -0.125121,0.028 -0.187442,0.0432 -0.08463,0.021 -0.170404,0.0373 -0.255927,0.0541 0,0 0.03751,-0.0279 0.03751,-0.0279 z"
       inkscape:connector-curvature="0" />
    <path
       style="opacity:0.922;fill:#916f6f;fill-opacity:1;fill-rule:evenodd;stroke:#af8e78;stroke-width:0.26458335;stroke-linecap:round;stroke-linejoin:round;stroke-miterlimit:4;stroke-dasharray:none;stroke-dashoffset:0;stroke-opacity:0.73650405;paint-order:fill markers stroke"
       id="path5465"
       d="m 11.705953,282.72677 c 0.07077,0.0253 0.143418,0.045 0.217113,0.0596 0.04949,0.009 0.09971,0.0127 0.149921,0.0141 0.03204,-5.9e-4 0.06272,-0.009 0.09394,-0.0153 0.02952,-0.005 0.05946,-0.007 0.08939,-0.008 0.02686,3e-5 0.05336,-0.005 0.07888,-0.0129 0.02368,-0.0127 0.04957,-0.0172 0.07592,-0.0201 0.01349,-10e-4 0.02703,-0.002 0.04056,-0.002 0,0 -0.03792,0.0278 -0.03792,0.0278 v 0 c -0.01345,6.2e-4 -0.0269,10e-4 -0.04029,0.003 -0.02628,0.003 -0.05152,0.009 -0.07547,0.0208 -0.02581,0.008 -0.05262,0.0118 -0.0796,0.0119 -0.02978,10e-4 -0.05956,0.003 -0.08889,0.009 -0.03131,0.006 -0.06234,0.0145 -0.09454,0.0144 -0.05029,-0.002 -0.100567,-0.006 -0.15009,-0.0149 -0.07384,-0.0149 -0.146596,-0.0349 -0.217644,-0.06 0,0 0.03872,-0.0262 0.03872,-0.0262 z"
       inkscape:connector-curvature="0" />
    <path
       style="opacity:0.922;fill:#916f6f;fill-opacity:1;fill-rule:evenodd;stroke:#af8e78;stroke-width:0.26458335;stroke-linecap:round;stroke-linejoin:round;stroke-miterlimit:4;stroke-dasharray:none;stroke-dashoffset:0;stroke-opacity:0.73650405;paint-order:fill markers stroke"
       id="path5467"
       d="m 4.6405857,282.63649 c 0.1073888,0.005 0.214893,0.009 0.3224099,0.008 0.068889,-0.002 0.1385371,-0.003 0.2066776,-0.0143 0.021138,-0.004 0.052594,-0.0114 0.07386,-0.0165 0.041136,-0.0109 0.082466,-0.0219 0.1230482,-0.0347 0.025855,-0.008 0.052639,-0.0104 0.078639,-0.0174 0.038287,-0.007 0.077544,10e-4 0.1157361,0.006 0.038663,0.005 0.077523,0.007 0.1164448,0.008 0.00359,-4.6e-4 0.00718,-9.2e-4 0.010774,-10e-4 0,0 -0.03777,0.028 -0.03777,0.028 v 0 c -0.00369,2.7e-4 -0.00737,5.4e-4 -0.011054,8.1e-4 -0.038957,-0.001 -0.077839,-0.004 -0.1165328,-0.009 -0.037918,-0.004 -0.07704,-0.0127 -0.1149117,-0.004 -0.025985,0.007 -0.052849,0.009 -0.07847,0.0175 -0.040714,0.0122 -0.081652,0.024 -0.1229135,0.0342 -0.023024,0.005 -0.050825,0.0122 -0.073972,0.016 -0.068254,0.0112 -0.1378952,0.0113 -0.20683,0.0137 -0.1077386,10e-4 -0.215445,-0.003 -0.3230711,-0.008 0,0 0.037935,-0.0273 0.037935,-0.0273 z"
       inkscape:connector-curvature="0" />
    <path
       style="opacity:0.922;fill:#916f6f;fill-opacity:1;fill-rule:evenodd;stroke:#af8e78;stroke-width:0.26458335;stroke-linecap:round;stroke-linejoin:round;stroke-miterlimit:4;stroke-dasharray:none;stroke-dashoffset:0;stroke-opacity:0.73650405;paint-order:fill markers stroke"
       id="path5469"
       d="m 7.897914,282.53171 c 0.070541,0.008 0.1388809,0.0222 0.2039194,0.051 0.041618,0.0191 0.075286,0.0466 0.1040916,0.0817 0.023196,0.0308 0.038661,0.0662 0.057247,0.0997 0.015126,0.0309 0.034087,0.0596 0.049527,0.0903 0.017507,0.039 0.042717,0.0731 0.069432,0.10622 0.022701,0.0252 0.046459,0.0494 0.072253,0.0714 0,0 -0.039886,0.0248 -0.039886,0.0248 v 0 c -0.025665,-0.0226 -0.049774,-0.0467 -0.072511,-0.0722 -0.026866,-0.0334 -0.052336,-0.0677 -0.07006,-0.107 -0.015449,-0.0306 -0.034229,-0.0594 -0.049377,-0.0902 -0.018542,-0.0332 -0.033708,-0.0685 -0.056789,-0.099 -0.028398,-0.0345 -0.061849,-0.0613 -0.102783,-0.08 -0.064821,-0.0283 -0.1330129,-0.042 -0.2032182,-0.0498 0,0 0.038154,-0.027 0.038154,-0.027 z"
       inkscape:connector-curvature="0" />
    <path
       style="opacity:0.922;fill:#916f6f;fill-opacity:1;fill-rule:evenodd;stroke:#af8e78;stroke-width:0.26458335;stroke-linecap:round;stroke-linejoin:round;stroke-miterlimit:4;stroke-dasharray:none;stroke-dashoffset:0;stroke-opacity:0.73650405;paint-order:fill markers stroke"
       id="path5471"
       d="m 8.8406827,282.47457 c 0.069563,0.0567 0.1499171,0.0961 0.2317935,0.13149 0.048184,0.0225 0.097797,0.0411 0.1503506,0.0499 0.027754,0.002 0.055439,0.006 0.082595,0.0122 0.030571,0.007 0.060813,0.0148 0.091709,0.0201 0.013282,0.002 0.02635,0.004 0.039786,0.003 0,0 -0.037959,0.0278 -0.037959,0.0278 v 0 c -0.013562,9e-5 -0.0269,-0.001 -0.040267,-0.004 -0.030898,-0.006 -0.061228,-0.0135 -0.091865,-0.0202 -0.027193,-0.006 -0.05475,-0.009 -0.082404,-0.012 -0.052595,-0.009 -0.1022522,-0.0284 -0.1505598,-0.0511 -0.08208,-0.0358 -0.1624897,-0.0757 -0.2326402,-0.13219 0,0 0.039462,-0.025 0.039462,-0.025 z"
       inkscape:connector-curvature="0" />
    <path
       style="opacity:0.922;fill:#916f6f;fill-opacity:1;fill-rule:evenodd;stroke:#af8e78;stroke-width:0.26458335;stroke-linecap:round;stroke-linejoin:round;stroke-miterlimit:4;stroke-dasharray:none;stroke-dashoffset:0;stroke-opacity:0.73650405;paint-order:fill markers stroke"
       id="path5473"
       d="m 10.59107,283.05295 c 0.0811,0.0139 0.163066,0.0216 0.245112,0.0271 0.04934,0.003 0.09877,0.004 0.14819,0.004 0.02947,-0.002 0.05827,0.001 0.08732,0.005 0.02668,0.004 0.05371,0.005 0.08066,0.006 0.027,5.1e-4 0.05401,4.3e-4 0.08101,4.3e-4 0.02129,-5.8e-4 0.04269,10e-4 0.0638,-0.002 0,0 -0.03769,0.0281 -0.03769,0.0281 v 0 c -0.0213,0.002 -0.04272,8.5e-4 -0.06411,0.001 -0.02703,0 -0.05407,10e-5 -0.08109,-5.1e-4 -0.02707,-8.2e-4 -0.05421,-0.002 -0.081,-0.006 -0.02888,-0.004 -0.05761,-0.006 -0.08686,-0.005 -0.04938,-3.4e-4 -0.09876,-10e-4 -0.148054,-0.004 -0.0822,-0.006 -0.164273,-0.0138 -0.245584,-0.0274 0,0 0.0383,-0.0268 0.0383,-0.0268 z"
       inkscape:connector-curvature="0" />
    <path
       style="fill:#ececec;stroke:none;stroke-width:0.04464286"
       d="m 29.201786,61.065624 c -5.03596,-0.267888 -9.134485,-1.171728 -10.734868,-2.367339 -0.292694,-0.218665 -0.304686,-0.234411 -0.20627,-0.270817 0.115282,-0.04264 0.115352,0.02205 -8.17e-4,-0.76154 l -0.05774,-0.389469 0.174691,-0.151009 0.174691,-0.151009 -0.08779,-0.194598 c -0.05165,-0.114482 -0.08779,-0.291679 -0.08779,-0.430375 0,-0.129674 -0.0077,-0.23583 -0.01705,-0.235902 -0.0094,0 -0.08299,0.04062 -0.163584,0.09043 l -0.146531,0.09056 -0.02561,-0.12404 c -0.07061,-0.342017 -7.0783,-44.850711 -7.063818,-44.865194 0.0093,-0.0093 0.165081,0.04176 0.346205,0.113444 2.522845,0.998462 7.482283,1.752899 13.677531,2.080647 2.482297,0.131321 4.621341,0.171065 7.745535,0.143913 2.871204,-0.02495 3.639732,-0.04664 5.803572,-0.163753 6.230912,-0.337241 11.416058,-1.182355 13.684581,-2.230416 0.207855,-0.09603 0.377919,-0.154929 0.377919,-0.130889 0,0.02404 -1.436384,10.229889 -3.191964,22.679662 -1.755581,12.449774 -3.191965,22.657368 -3.191965,22.683538 0,0.02617 -0.03976,0.01161 -0.08835,-0.03237 -0.09617,-0.08704 -0.09975,-0.08298 -0.156612,0.177728 -0.01607,0.07366 -0.08999,0.229098 -0.16427,0.345415 l -0.13506,0.211491 0.185485,0.210723 c 0.143836,0.163407 0.182845,0.241362 0.173728,0.347188 -0.0065,0.07506 0.003,0.160406 0.02112,0.189665 0.0565,0.09142 -0.08832,0.356192 -0.312671,0.571603 -1.045717,1.004067 -4.007028,1.870857 -7.916222,2.317116 -0.75518,0.08621 -2.043203,0.187388 -3.147321,0.247232 -0.95645,0.05184 -4.48327,0.05079 -5.46875,-0.0017 z M 34.425,49.619729 c 3.507562,-0.434321 6.542544,-1.689345 9.172029,-3.79281 0.576897,-0.461491 1.736173,-1.617968 2.196469,-2.191165 1.772338,-2.20706 2.750153,-4.51654 3.052581,-7.209822 0.0612,-0.545043 0.06112,-2.085924 -1.34e-4,-2.633928 -0.293133,-2.622346 -1.295302,-5.004187 -2.996124,-7.120847 -3.606941,-4.488809 -9.842888,-6.826456 -16.067678,-6.023232 -3.278862,0.423092 -6.337833,1.703546 -8.839286,3.700035 -0.691282,0.551734 -1.816555,1.670796 -2.336404,2.323508 -2.460628,3.089512 -3.48766,6.830114 -2.885749,10.510316 0.471491,2.882781 1.889025,5.539503 4.111816,7.706309 2.814825,2.743928 6.555042,4.400857 10.820159,4.79337 0.700605,0.06448 3.065626,0.02577 3.772321,-0.06173 z"
       id="path4513"
       inkscape:connector-curvature="0"
       transform="matrix(0.26458334,0,0,0.26458334,0,280.06666)" />
    <path
       style="opacity:0.922;fill:#917c6f;fill-opacity:1;fill-rule:evenodd;stroke:#af8e78;stroke-width:0.26458335;stroke-linecap:round;stroke-linejoin:round;stroke-miterlimit:4;stroke-dasharray:none;stroke-dashoffset:0;stroke-opacity:0.73650405;paint-order:fill markers stroke"
       id="path5445-0"
       d="m 6.5492528,282.29351 c 0.099045,0.0369 0.2035329,0.0566 0.3071109,0.0761 0.1232826,0.018 0.2468507,0.0347 0.3705976,0.0493 0.098396,0.0147 0.1968629,0.0287 0.2959381,0.0379 0.046139,0.003 0.092001,0.008 0.1378565,0.0138 0.068534,0.005 0.1360334,0.0182 0.2040541,0.0276 0.023648,0.003 0.047227,0.006 0.071104,0.006 0,0 -0.038,0.0275 -0.038,0.0275 v 0 c -0.023879,-8.5e-4 -0.047525,-0.003 -0.071178,-0.007 -0.067997,-0.01 -0.1355489,-0.0223 -0.2040905,-0.0275 -0.045822,-0.005 -0.091619,-0.0109 -0.1376814,-0.0138 -0.098922,-0.01 -0.1972347,-0.0239 -0.2955501,-0.0383 -0.1238065,-0.0148 -0.2474691,-0.0313 -0.3707858,-0.0496 -0.1039416,-0.0196 -0.2086642,-0.0396 -0.3081719,-0.0763 0,0 0.038797,-0.0261 0.038797,-0.0261 z"
       inkscape:connector-curvature="0" />
    <path
       style="opacity:0.922;fill:#917c6f;fill-opacity:1;fill-rule:evenodd;stroke:#af8e78;stroke-width:0.26458335;stroke-linecap:round;stroke-linejoin:round;stroke-miterlimit:4;stroke-dasharray:none;stroke-dashoffset:0;stroke-opacity:0.73650405;paint-order:fill markers stroke"
       id="path5445-6"
       d="m 8.0962729,282.3699 c 0.099045,0.0369 0.2035329,0.0566 0.3071109,0.0761 0.1232826,0.018 0.2468507,0.0347 0.3705976,0.0493 0.098396,0.0147 0.1968628,0.0287 0.295938,0.0379 0.046139,0.003 0.092001,0.008 0.1378565,0.0138 0.068534,0.005 0.1360334,0.0182 0.2040541,0.0276 0.023648,0.003 0.047227,0.006 0.071104,0.006 0,0 -0.038,0.0275 -0.038,0.0275 v 0 c -0.023879,-8.5e-4 -0.047525,-0.003 -0.071178,-0.007 -0.067997,-0.01 -0.1355489,-0.0223 -0.2040905,-0.0275 -0.045822,-0.005 -0.091619,-0.0109 -0.1376814,-0.0138 -0.098922,-0.01 -0.1972346,-0.0239 -0.29555,-0.0383 -0.1238065,-0.0148 -0.2474691,-0.0313 -0.3707858,-0.0496 -0.1039416,-0.0196 -0.2086642,-0.0396 -0.3081719,-0.0763 0,0 0.038797,-0.0261 0.038797,-0.0261 z"
       inkscape:connector-curvature="0" />
    <path
       style="opacity:0.922;fill:#917c6f;fill-opacity:1;fill-rule:evenodd;stroke:#af8e78;stroke-width:0.26458335;stroke-linecap:round;stroke-linejoin:round;stroke-miterlimit:4;stroke-dasharray:none;stroke-dashoffset:0;stroke-opacity:0.73650405;paint-order:fill markers stroke"
       id="path5445-8"
       d="m 9.6672349,282.44097 c 0.099045,0.0369 0.2035328,0.0566 0.3071108,0.0761 0.1232823,0.018 0.2468503,0.0347 0.3705973,0.0493 0.0984,0.0147 0.196863,0.0287 0.295938,0.0379 0.04614,0.003 0.092,0.008 0.137857,0.0138 0.06853,0.005 0.136033,0.0182 0.204054,0.0276 0.02365,0.003 0.04723,0.006 0.0711,0.006 0,0 -0.038,0.0275 -0.038,0.0275 v 0 c -0.02388,-8.5e-4 -0.04753,-0.003 -0.07118,-0.007 -0.068,-0.01 -0.135549,-0.0223 -0.20409,-0.0275 -0.04582,-0.005 -0.09162,-0.0109 -0.137682,-0.0138 -0.09892,-0.01 -0.197234,-0.0239 -0.29555,-0.0383 -0.123806,-0.0148 -0.247469,-0.0313 -0.3707857,-0.0496 -0.1039416,-0.0196 -0.2086642,-0.0396 -0.3081719,-0.0763 0,0 0.038797,-0.0261 0.038797,-0.0261 z"
       inkscape:connector-curvature="0" />
  </g>
</svg>
